<svg id="visual" viewBox="0 0 960 120" width="960" height="120" xmlns="http://www.w3.org/2000/svg" xmlns:xlink="http://www.w3.org/1999/xlink" version="1.1"><rect x="0" y="0" width="960" height="120" fill="#283345"></rect><path d="M0 51L26.7 56.3C53.3 61.7 106.7 72.3 160 80.5C213.3 88.7 266.7 94.3 320 98.2C373.3 102 426.7 104 480 99.8C533.3 95.7 586.7 85.3 640 82.3C693.3 79.3 746.7 83.7 800 87.5C853.3 91.3 906.7 94.7 933.3 96.3L960 98L960 0L933.3 0C906.7 0 853.3 0 800 0C746.7 0 693.3 0 640 0C586.7 0 533.3 0 480 0C426.7 0 373.3 0 320 0C266.7 0 213.3 0 160 0C106.7 0 53.3 0 26.7 0L0 0Z" fill="#d2558a"></path><path d="M0 44L26.7 50.8C53.3 57.7 106.7 71.3 160 74C213.3 76.7 266.7 68.3 320 68.2C373.3 68 426.7 76 480 76C533.3 76 586.7 68 640 65.5C693.3 63 746.7 66 800 66.3C853.3 66.7 906.7 64.3 933.3 63.2L960 62L960 0L933.3 0C906.7 0 853.3 0 800 0C746.7 0 693.3 0 640 0C586.7 0 533.3 0 480 0C426.7 0 373.3 0 320 0C266.7 0 213.3 0 160 0C106.7 0 53.3 0 26.7 0L0 0Z" fill="#ed5876"></path><path d="M0 45L26.7 47.5C53.3 50 106.7 55 160 58.5C213.3 62 266.7 64 320 60.8C373.3 57.7 426.7 49.3 480 48.8C533.3 48.3 586.7 55.7 640 54.8C693.3 54 746.7 45 800 41.3C853.3 37.7 906.7 39.3 933.3 40.2L960 41L960 0L933.3 0C906.7 0 853.3 0 800 0C746.7 0 693.3 0 640 0C586.7 0 533.3 0 480 0C426.7 0 373.3 0 320 0C266.7 0 213.3 0 160 0C106.7 0 53.3 0 26.7 0L0 0Z" fill="#fe645b"></path><path d="M0 32L26.7 29.5C53.3 27 106.7 22 160 19.3C213.3 16.7 266.7 16.3 320 20.8C373.3 25.3 426.7 34.7 480 35C533.3 35.3 586.7 26.7 640 25.8C693.3 25 746.7 32 800 31.5C853.3 31 906.7 23 933.3 19L960 15L960 0L933.3 0C906.7 0 853.3 0 800 0C746.7 0 693.3 0 640 0C586.7 0 533.3 0 480 0C426.7 0 373.3 0 320 0C266.7 0 213.3 0 160 0C106.7 0 53.3 0 26.7 0L0 0Z" fill="#ff793b"></path><path d="M0 7L26.7 6.5C53.3 6 106.7 5 160 3.8C213.3 2.7 266.7 1.3 320 4.5C373.3 7.7 426.7 15.3 480 19.8C533.3 24.3 586.7 25.7 640 23.3C693.3 21 746.7 15 800 16C853.3 17 906.7 25 933.3 29L960 33L960 0L933.3 0C906.7 0 853.3 0 800 0C746.7 0 693.3 0 640 0C586.7 0 533.3 0 480 0C426.7 0 373.3 0 320 0C266.7 0 213.3 0 160 0C106.7 0 53.3 0 26.7 0L0 0Z" fill="#fc9406"></path></svg>