<svg id="visual" viewBox="0 0 960 80" width="960" height="80" xmlns="http://www.w3.org/2000/svg" xmlns:xlink="http://www.w3.org/1999/xlink" version="1.1"><rect x="0" y="0" width="960" height="80" fill="#283345"></rect><path d="M0 15L26.7 15.5C53.3 16 106.7 17 160 19.7C213.3 22.3 266.7 26.7 320 26C373.3 25.3 426.7 19.7 480 16.7C533.3 13.7 586.7 13.3 640 17.5C693.3 21.7 746.7 30.3 800 29.8C853.3 29.3 906.7 19.7 933.3 14.8L960 10L960 81L933.3 81C906.7 81 853.3 81 800 81C746.7 81 693.3 81 640 81C586.7 81 533.3 81 480 81C426.7 81 373.3 81 320 81C266.7 81 213.3 81 160 81C106.7 81 53.3 81 26.7 81L0 81Z" fill="#d2558a"></path><path d="M0 28L26.7 26.7C53.3 25.3 106.7 22.7 160 23.3C213.3 24 266.7 28 320 29.3C373.3 30.7 426.7 29.3 480 32.3C533.3 35.3 586.7 42.7 640 45C693.3 47.3 746.7 44.7 800 40.5C853.3 36.3 906.7 30.7 933.3 27.8L960 25L960 81L933.3 81C906.7 81 853.3 81 800 81C746.7 81 693.3 81 640 81C586.7 81 533.3 81 480 81C426.7 81 373.3 81 320 81C266.7 81 213.3 81 160 81C106.7 81 53.3 81 26.7 81L0 81Z" fill="#ed5876"></path><path d="M0 42L26.7 41.3C53.3 40.7 106.7 39.3 160 39C213.3 38.7 266.7 39.3 320 43C373.3 46.7 426.7 53.3 480 56.7C533.3 60 586.7 60 640 55.2C693.3 50.3 746.7 40.7 800 38.7C853.3 36.7 906.7 42.3 933.3 45.2L960 48L960 81L933.3 81C906.7 81 853.3 81 800 81C746.7 81 693.3 81 640 81C586.7 81 533.3 81 480 81C426.7 81 373.3 81 320 81C266.7 81 213.3 81 160 81C106.7 81 53.3 81 26.7 81L0 81Z" fill="#fe645b"></path><path d="M0 56L26.7 56.7C53.3 57.3 106.7 58.7 160 59.2C213.3 59.7 266.7 59.3 320 61C373.3 62.7 426.7 66.3 480 67.2C533.3 68 586.7 66 640 64.8C693.3 63.7 746.7 63.3 800 62.2C853.3 61 906.7 59 933.3 58L960 57L960 81L933.3 81C906.7 81 853.3 81 800 81C746.7 81 693.3 81 640 81C586.7 81 533.3 81 480 81C426.7 81 373.3 81 320 81C266.7 81 213.3 81 160 81C106.7 81 53.3 81 26.7 81L0 81Z" fill="#ff793b"></path><path d="M0 66L26.7 68C53.3 70 106.7 74 160 72.7C213.3 71.3 266.7 64.7 320 64.2C373.3 63.7 426.7 69.3 480 71.8C533.3 74.3 586.7 73.7 640 70.5C693.3 67.3 746.7 61.7 800 62C853.3 62.3 906.7 68.7 933.3 71.8L960 75L960 81L933.3 81C906.7 81 853.3 81 800 81C746.7 81 693.3 81 640 81C586.7 81 533.3 81 480 81C426.7 81 373.3 81 320 81C266.7 81 213.3 81 160 81C106.7 81 53.3 81 26.7 81L0 81Z" fill="#fc9406"></path></svg>